<svg xmlns="http://www.w3.org/2000/svg" width="900" height="900" viewBox="0 0 900 900" role="img" aria-label="Pin Up bonusu üçün kvadrat banner">
  <defs>
    <linearGradient id="bgSq" x1="0" x2="1" y1="0" y2="1">
      <stop offset="0%" stop-color="#fff2ec"/>
      <stop offset="50%" stop-color="#ffffff"/>
      <stop offset="100%" stop-color="#ffd5c6"/>
    </linearGradient>
    <linearGradient id="teal" x1="0" x2="1" y1="0" y2="1">
      <stop offset="0%" stop-color="#0bbfa5"/>
      <stop offset="100%" stop-color="#17d6b8"/>
    </linearGradient>
    <linearGradient id="warm" x1="0" x2="1" y1="0" y2="1">
      <stop offset="0%" stop-color="#ff3b1f"/>
      <stop offset="100%" stop-color="#ff7a00"/>
    </linearGradient>
  </defs>
  <rect width="900" height="900" rx="60" fill="url(#bgSq)"/>
  <circle cx="120" cy="160" r="90" fill="#ffd1c2" opacity="0.6"/>
  <circle cx="760" cy="760" r="120" fill="#ffd1c2" opacity="0.6"/>
  <g transform="translate(140,130)">
    <text x="0" y="70" font-family="'Trebuchet MS', 'Segoe UI', sans-serif" font-size="70" font-weight="800" fill="#ff3b1f">Pin Up</text>
    <rect x="0" y="86" width="230" height="32" rx="16" fill="#0bbfa5"/>
    <text x="30" y="110" font-family="'Trebuchet MS', 'Segoe UI', sans-serif" font-size="20" font-weight="700" fill="#ffffff" letter-spacing="4">CASINO</text>
  </g>
  <g transform="translate(120,360)">
    <rect x="0" y="0" width="660" height="120" rx="22" fill="url(#teal)"/>
    <text x="40" y="78" font-family="'Trebuchet MS', 'Segoe UI', sans-serif" font-size="52" font-weight="800" fill="#ffffff">10 000 AZN + 250 FS</text>
    <rect x="90" y="140" width="420" height="70" rx="18" fill="url(#warm)"/>
    <text x="150" y="186" font-family="'Trebuchet MS', 'Segoe UI', sans-serif" font-size="34" font-weight="700" fill="#ffffff">İlk depozitə!</text>
  </g>
  <g transform="translate(310,660)">
    <rect x="0" y="0" width="280" height="78" rx="20" fill="#ff3b1f"/>
    <text x="64" y="50" font-family="'Trebuchet MS', 'Segoe UI', sans-serif" font-size="30" font-weight="700" fill="#ffffff">Bonus al</text>
  </g>
  <g opacity="0.9">
    <circle cx="120" cy="690" r="32" fill="#ffcf4a"/>
    <circle cx="120" cy="690" r="22" fill="#ffe08a"/>
    <circle cx="820" cy="220" r="28" fill="#ffcf4a"/>
    <circle cx="820" cy="220" r="20" fill="#ffe08a"/>
  </g>
</svg>
