<svg xmlns="http://www.w3.org/2000/svg" width="1600" height="700" viewBox="0 0 1600 700" role="img" aria-label="Pin Up bonus banneri">
  <defs>
    <linearGradient id="bg" x1="0" x2="1" y1="0" y2="1">
      <stop offset="0%" stop-color="#ffe4db"/>
      <stop offset="45%" stop-color="#fff7f3"/>
      <stop offset="100%" stop-color="#ffd3c0"/>
    </linearGradient>
    <linearGradient id="accent" x1="0" x2="1" y1="0" y2="1">
      <stop offset="0%" stop-color="#0bbfa5"/>
      <stop offset="100%" stop-color="#17d6b8"/>
    </linearGradient>
    <linearGradient id="accentWarm" x1="0" x2="1" y1="0" y2="1">
      <stop offset="0%" stop-color="#ff3b1f"/>
      <stop offset="100%" stop-color="#ff7a00"/>
    </linearGradient>
  </defs>
  <rect width="1600" height="700" rx="48" fill="url(#bg)"/>
  <g opacity="0.35">
    <circle cx="170" cy="160" r="160" fill="#ffd1c2"/>
    <circle cx="1400" cy="540" r="180" fill="#ffd1c2"/>
  </g>
  <g transform="translate(120,110)">
    <rect x="0" y="0" width="420" height="110" rx="22" fill="#ffffff"/>
    <text x="28" y="70" font-family="'Trebuchet MS', 'Segoe UI', sans-serif" font-size="68" font-weight="800" fill="#ff3b1f">Pin Up</text>
    <rect x="28" y="84" width="240" height="30" rx="15" fill="#0bbfa5"/>
    <text x="58" y="106" font-family="'Trebuchet MS', 'Segoe UI', sans-serif" font-size="20" font-weight="700" fill="#ffffff" letter-spacing="5">CASINO</text>
  </g>
  <g transform="translate(740,190)">
    <rect x="0" y="0" width="740" height="110" rx="20" fill="url(#accent)"/>
    <text x="32" y="72" font-family="'Trebuchet MS', 'Segoe UI', sans-serif" font-size="54" font-weight="800" fill="#ffffff">10 000 AZN + 250 FS</text>
    <rect x="40" y="120" width="360" height="62" rx="18" fill="url(#accentWarm)"/>
    <text x="70" y="162" font-family="'Trebuchet MS', 'Segoe UI', sans-serif" font-size="30" font-weight="700" fill="#ffffff">İlk depozitə!</text>
  </g>
  <g transform="translate(1070,380)">
    <rect x="0" y="0" width="280" height="74" rx="18" fill="#ff3b1f"/>
    <text x="58" y="48" font-family="'Trebuchet MS', 'Segoe UI', sans-serif" font-size="30" font-weight="700" fill="#ffffff">Bonus al</text>
  </g>
  <g opacity="0.9">
    <circle cx="220" cy="500" r="48" fill="#ffcf4a"/>
    <circle cx="220" cy="500" r="38" fill="#ffe08a"/>
    <circle cx="220" cy="500" r="26" fill="#ffcf4a"/>
    <circle cx="1320" cy="130" r="38" fill="#ffcf4a"/>
    <circle cx="1320" cy="130" r="28" fill="#ffe08a"/>
    <circle cx="1480" cy="330" r="28" fill="#ffcf4a"/>
  </g>
  <g transform="translate(520,290)">
    <rect x="0" y="0" width="160" height="220" rx="30" fill="#0bbfa5"/>
    <circle cx="40" cy="40" r="16" fill="#ffffff" opacity="0.9"/>
    <circle cx="120" cy="40" r="16" fill="#ffffff" opacity="0.9"/>
    <circle cx="40" cy="110" r="16" fill="#ffffff" opacity="0.9"/>
    <circle cx="120" cy="110" r="16" fill="#ffffff" opacity="0.9"/>
    <circle cx="80" cy="180" r="16" fill="#ffffff" opacity="0.9"/>
  </g>
</svg>
